.
..............................Site Info...........................

 -   http://www.scenetime.com  *_*   

SceneTime is going to Close sign up on march/1, hurry up! get in before the doors are closed.

     We care to share . Join us on  http://www.scenetime.com 

    Be the first to get new release at  http://www.scenetime.com

        Seed back for speed


...................................NFO:.................................................








































          
          
              
              
                    
                    
                    
                    
Unaccompanied.Minors.2006.DVDRiP.AC3-5.1.x264-SiC

Poster:
[img]http://img401.imageshack.us/img401/3441/unaccompaniedminorsdvdc.png[/img]

IMDB Link: 
http://www.imdb.com/title/tt0488658

Description:
Five disparate kids snowed in at the airport on Christmas Eve learn some lessons about friendship when they launch a bid to get back to their families and outsmart a disgruntled airport official who wants to keep them grounded.

Comedy | Family | Holiday

General:
Complete name                            : C:\VIDEOS MUSIC AND OTHER SHIT\ENCODES\Unaccompanied.Minors.2006.DVDRiP.AC3-5.1.x264-SiC\Unaccompanied.Minors.2006.DVDRiP.AC3-5.1.x264-SiC.mkv
Format                                   : Matroska
Format version                           : Version 2
File size                                : 1.37 GiB
Duration                                 : 1h 29mn
Overall bit rate                         : 2 176 Kbps
Encoded date                             : UTC 2012-02-20 20:17:03
Writing application                      : mkvmerge v5.2.1 ('A Far Off Place') built on Jan  2 2012 23:21:10
Writing library                          : libebml v1.2.3 + libmatroska v1.3.0

Video
ID                                       : 1
Format                                   : AVC
Format/Info                              : Advanced Video Codec
Format profile                           : High@L4.1
Format settings, CABAC                   : Yes
Format settings, ReFrames                : 4 frames
Codec ID                                 : V_MPEG4/ISO/AVC
Duration                                 : 1h 29mn
Bit rate                                 : 1 791 Kbps
Width                                    : 720 pixels
Height                                   : 304 pixels
Display aspect ratio                     : 2.35:1
Frame rate                               : 23.976 fps
Color space                              : YUV
Chroma subsampling                       : 4:2:0
Bit depth                                : 8 bits
Scan type                                : Progressive
Bits/(Pixel*Frame)                       : 0.341
Stream size                              : 1.10 GiB (80%)
Title                                    : Unaccompanied.Minors.2006.DVDRiP.AC3-5.1.x264-SiC
Writing library                          : x264 core 120 r2164 da19765
Language                                 : English
Default                                  : Yes
Forced                                   : No

Audio
ID                                       : 2
Format                                   : AC-3
Format/Info                              : Audio Coding 3
Mode extension                           : CM (complete main)
Codec ID                                 : A_AC3
Duration                                 : 1h 29mn
Bit rate mode                            : Constant
Bit rate                                 : 384 Kbps
Channel(s)                               : 6 channels
Channel positions                        : Front: L C R, Side: L R, LFE
Sampling rate                            : 48.0 KHz
Bit depth                                : 16 bits
Compression mode                         : Lossy
Stream size                              : 247 MiB (18%)
Default                                  : Yes
Forced                                   : No

Screenshots:
[IMG]http://img834.imageshack.us/img834/2426/unaccompaniedminors2006.jpg[/IMG]
[IMG]http://img256.imageshack.us/img256/2426/unaccompaniedminors2006.jpg[/IMG]
[IMG]http://img37.imageshack.us/img37/2426/unaccompaniedminors2006.jpg[/IMG]
[IMG]http://img88.imageshack.us/img88/2426/unaccompaniedminors2006.jpg[/IMG]
[IMG]http://img26.imageshack.us/img26/2426/unaccompaniedminors2006.jpg[/IMG]
[IMG]http://img525.imageshack.us/img525/2426/unaccompaniedminors2006.jpg[/IMG]
[IMG]http://img832.imageshack.us/img832/2426/unaccompaniedminors2006.jpg[/IMG]
[IMG]http://img513.imageshack.us/img513/2426/unaccompaniedminors2006.jpg[/IMG]

Note:  Normal stuff, came together real nice :D :)

Source:  Ours

Enjoy!

Respects to T00NG0D, ELEKTRI4KA, PA, YeFsTe, MrRep and everyone in the struggle...